<?xml version="1.0" encoding="UTF-8"?>
<svg id="Capa_1" data-name="Capa 1" xmlns="http://www.w3.org/2000/svg" viewBox="0 0 326.62 337.41">
  <defs>
    <style>
      .cls-1 {
        fill: #f8dda4;
      }

      .cls-2 {
        fill: #583e23;
      }

      .cls-3 {
        stroke-dasharray: 0 0 0 0 .59 59.46 0 0;
      }

      .cls-3, .cls-4 {
        fill: none;
        stroke: #f8dda4;
        stroke-linecap: round;
        stroke-miterlimit: 10;
        stroke-width: 48px;
      }
    </style>
  </defs>
  <rect class="cls-2" x="0" y="0" width="326.62" height="337.41" rx="70.87" ry="70.87"/>
  <path class="cls-1" d="M140.06,253.79V85.35h60.35c13.85,0,24.98,1.73,33.39,5.19,8.41,3.46,14.55,8.62,18.43,15.46,3.87,6.84,5.81,15.38,5.81,25.6,0,8.08-1.77,15.21-5.32,21.39-3.55,6.18-8.37,11.01-14.47,14.47-6.1,3.46-13.03,5.19-20.78,5.19l.74-7.91c9.73,0,17.81,1.82,24.24,5.44,6.43,3.63,11.29,8.58,14.59,14.84,3.3,6.27,4.95,13.36,4.95,21.27,0,15.83-4.82,27.7-14.47,35.62-9.65,7.91-23.87,11.87-42.66,11.87h-64.8Zm36.11-149.88V233.51l-12.86-14.35h41.06c6.43,0,11.5-1.56,15.21-4.7,3.71-3.13,5.56-7.42,5.56-12.86,0-5.94-1.77-10.39-5.32-13.36-3.55-2.97-8.53-4.45-14.96-4.45h-41.55v-31.16h37.84c6.59,0,11.54-1.32,14.84-3.96,3.3-2.64,4.95-6.76,4.95-12.37,0-5.11-1.69-9.11-5.07-12-3.38-2.88-8.29-4.33-14.72-4.33h-36.85l11.87-16.08Z"/>
  <g>
    <line class="cls-4" x1="91.83" y1="109.4" x2="91.83" y2="109.9"/>
    <line class="cls-3" x1="91.83" y1="169.36" x2="91.83" y2="229.42"/>
    <line class="cls-4" x1="91.83" y1="229.42" x2="91.83" y2="229.92"/>
  </g>
</svg>