<?xml version="1.0" encoding="UTF-8"?>
<svg id="Capa_1" data-name="Capa 1" xmlns="http://www.w3.org/2000/svg" viewBox="0 0 1109.19 254.21">
  <defs>
    <style>
      .cls-1, .cls-2 {
        fill: none;
        stroke: #f9a03f;
        stroke-linecap: round;
        stroke-miterlimit: 10;
        stroke-width: 48px;
      }

      .cls-3 {
        fill: #f9a03f;
      }

      .cls-2 {
        stroke-dasharray: 0 0 0 0 .95 95.5 0 0;
      }
    </style>
  </defs>
  <g>
    <path class="cls-3" d="M.13,156.63V0H56.25c12.88,0,23.23,1.61,31.05,4.83,7.82,3.22,13.53,8.01,17.13,14.38,3.6,6.36,5.4,14.3,5.4,23.8,0,7.51-1.65,14.15-4.94,19.9-3.3,5.75-7.78,10.23-13.46,13.46-5.67,3.22-12.11,4.83-19.32,4.83l.69-7.36c9.05,0,16.56,1.69,22.54,5.06,5.98,3.38,10.5,7.97,13.57,13.8,3.07,5.83,4.6,12.42,4.6,19.78,0,14.72-4.48,25.76-13.46,33.12-8.97,7.36-22.19,11.04-39.67,11.04H.13ZM33.71,17.25v120.52l-11.96-13.34H59.93c5.98,0,10.69-1.46,14.15-4.37,3.45-2.91,5.17-6.9,5.17-11.96,0-5.52-1.65-9.66-4.94-12.42-3.3-2.76-7.94-4.14-13.92-4.14H21.75v-28.98H56.94c6.13,0,10.73-1.23,13.8-3.68,3.07-2.45,4.6-6.29,4.6-11.5,0-4.75-1.57-8.47-4.71-11.15-3.14-2.68-7.71-4.03-13.69-4.03H22.67l11.04-14.95Z"/>
    <path class="cls-3" d="M186.43,159.39c-11.65,0-21.93-2.49-30.82-7.47-8.89-4.98-15.79-11.92-20.7-20.81-4.91-8.89-7.36-19.09-7.36-30.59s2.45-21.93,7.36-30.82c4.91-8.89,11.81-15.83,20.7-20.81,8.89-4.98,19.17-7.48,30.82-7.48s22.16,2.49,31.05,7.48c8.89,4.98,15.83,11.92,20.81,20.81,4.98,8.89,7.48,19.17,7.48,30.82s-2.49,21.7-7.48,30.59c-4.98,8.89-11.92,15.83-20.81,20.81-8.89,4.98-19.24,7.47-31.05,7.47Zm.23-32.66c7.36,0,13.38-2.42,18.06-7.25,4.68-4.83,7.02-11.15,7.02-18.98s-2.34-14.41-7.02-19.32c-4.68-4.91-10.69-7.36-18.06-7.36s-13.38,2.42-18.05,7.24c-4.68,4.83-7.02,11.23-7.02,19.21s2.34,14.38,7.02,19.21c4.68,4.83,10.69,7.25,18.05,7.25Z"/>
    <path class="cls-3" d="M315.69,159.39c-11.65,0-21.93-2.49-30.82-7.47-8.89-4.98-15.79-11.92-20.7-20.81-4.91-8.89-7.36-19.09-7.36-30.59s2.45-21.93,7.36-30.82c4.91-8.89,11.81-15.83,20.7-20.81,8.89-4.98,19.17-7.48,30.82-7.48s22.16,2.49,31.05,7.48c8.89,4.98,15.83,11.92,20.81,20.81,4.98,8.89,7.48,19.17,7.48,30.82s-2.49,21.7-7.48,30.59c-4.98,8.89-11.92,15.83-20.81,20.81-8.89,4.98-19.24,7.47-31.05,7.47Zm.23-32.66c7.36,0,13.38-2.42,18.06-7.25,4.68-4.83,7.02-11.15,7.02-18.98s-2.34-14.41-7.02-19.32c-4.68-4.91-10.69-7.36-18.06-7.36s-13.38,2.42-18.05,7.24c-4.68,4.83-7.02,11.23-7.02,19.21s2.34,14.38,7.02,19.21c4.68,4.83,10.69,7.25,18.05,7.25Z"/>
    <path class="cls-3" d="M392.51,0h33.35V156.63h-33.35V0Zm23.23,100.05v-4.37l46-51.52h37.72l-51.06,57.73-.92-11.04,53.13,65.78h-39.1l-45.77-56.58Z"/>
    <path class="cls-3" d="M510.27,156.63V44.16h24.84l6.9,22.31-11.5-.92c3.83-4.45,8.2-8.51,13.11-12.19,4.91-3.68,10.27-6.59,16.1-8.74,5.83-2.15,11.88-3.22,18.17-3.22,7.51,0,13.53,1.27,18.05,3.79,4.52,2.53,7.97,6.02,10.35,10.46,2.38,4.45,3.99,9.47,4.83,15.07,.84,5.6,1.27,11.38,1.27,17.36v68.54h-33.58V89.93c0-6.44-1.15-10.69-3.45-12.76-2.3-2.07-5.14-3.1-8.51-3.1-4.75,0-9.43,1.42-14.03,4.25-4.6,2.84-8.74,6.48-12.42,10.92l-5.98-17.02h9.43v84.41h-33.58Zm137.08,0V89.93c0-6.44-1.11-10.69-3.33-12.76-2.22-2.07-5.02-3.1-8.4-3.1-4.91,0-9.66,1.42-14.26,4.25-4.6,2.84-8.74,6.48-12.42,10.92l-9.89-23.69c3.99-4.45,8.43-8.51,13.34-12.19,4.91-3.68,10.23-6.59,15.98-8.74,5.75-2.15,11.77-3.22,18.06-3.22,7.51,0,13.57,1.27,18.17,3.79,4.6,2.53,8.05,6.02,10.35,10.46,2.3,4.45,3.91,9.47,4.83,15.07,.92,5.6,1.38,11.38,1.38,17.36v68.54h-33.81Z"/>
    <path class="cls-3" d="M737.74,159.62c-8.13,0-15.29-1.57-21.5-4.72-6.21-3.14-11-7.55-14.38-13.23-3.37-5.67-5.06-12.27-5.06-19.78,0-7.97,1.84-14.76,5.52-20.35,3.68-5.6,8.62-9.93,14.83-13,6.21-3.07,13.15-4.6,20.81-4.6,11.19,0,20.24,2.53,27.14,7.59s11.5,12.34,13.8,21.85l-14.49-2.53v-26.22c0-4.14-1.46-7.74-4.37-10.81-2.91-3.07-7.59-4.6-14.03-4.6-4.14,0-8.89,.5-14.26,1.5-5.37,1-10.89,2.88-16.56,5.63l-9.89-23.92c6.75-3.37,13.99-6.06,21.74-8.05,7.74-1.99,15.68-2.99,23.8-2.99,10.43,0,19.17,1.84,26.22,5.52,7.05,3.68,12.3,8.89,15.76,15.64,3.45,6.75,5.17,14.57,5.17,23.46v70.61h-27.37l-6.67-21.85,14.95-4.6c-2.45,9.2-7.13,16.41-14.03,21.62s-15.95,7.82-27.14,7.82Zm10.35-23.92c5.06,0,9.08-1.3,12.07-3.91,2.99-2.61,4.49-5.9,4.49-9.89,0-4.29-1.5-7.67-4.49-10.12-2.99-2.45-7.01-3.68-12.07-3.68s-9.05,1.23-11.96,3.68c-2.91,2.45-4.37,5.83-4.37,10.12,0,3.99,1.46,7.28,4.37,9.89,2.91,2.61,6.9,3.91,11.96,3.91Z"/>
    <path class="cls-3" d="M845.15,44.16l8.74,31.05v81.42h-33.58V44.16h24.84Zm1.38,49.68l-5.75-2.53v-25.99l2.07-2.76c1.84-2.61,4.49-5.6,7.93-8.97,3.45-3.37,7.51-6.25,12.19-8.62,4.68-2.38,9.47-3.56,14.38-3.56,2.45,0,4.68,.15,6.67,.46,1.99,.31,3.6,.84,4.83,1.61v30.59h-7.59c-9.81,0-17.52,1.57-23.12,4.71-5.6,3.14-9.47,8.17-11.62,15.06Z"/>
    <path class="cls-3" d="M904.72,0h33.35V156.63h-33.35V0Zm23.23,100.05v-4.37l46-51.52h37.72l-51.06,57.73-.92-11.04,53.13,65.78h-39.1l-45.77-56.58Z"/>
    <path class="cls-3" d="M1063.65,160.08c-9.05,0-17.52-1.76-25.42-5.29-7.9-3.53-15.06-9.58-21.5-18.17l19.09-18.4c5.21,5.37,10.2,9.2,14.95,11.5,4.75,2.3,9.97,3.45,15.64,3.45,3.37,0,6.1-.73,8.17-2.19,2.07-1.46,3.11-3.26,3.11-5.4,0-1.84-.61-3.37-1.84-4.6-1.23-1.23-3.53-2.45-6.9-3.68-3.37-1.23-8.28-2.68-14.72-4.37-11.81-2.91-20.58-7.17-26.33-12.76-5.75-5.6-8.62-13.07-8.62-22.43,0-6.75,1.76-12.92,5.29-18.51,3.53-5.6,8.58-10.08,15.18-13.46,6.59-3.37,14.41-5.06,23.46-5.06,10.73,0,19.86,2.03,27.37,6.09,7.51,4.06,13.72,9.01,18.63,14.83l-20.7,17.71c-3.37-3.07-7.44-5.67-12.19-7.82-4.75-2.15-10.12-3.22-16.1-3.22-3.22,0-5.98,.61-8.28,1.84-2.3,1.23-3.45,3.07-3.45,5.52,0,2.3,1.38,4.22,4.14,5.75,2.76,1.53,8.28,3.3,16.56,5.29,13.95,3.37,23.96,7.9,30.01,13.57,6.06,5.67,9.08,13.26,9.08,22.77,0,7.36-1.92,13.84-5.75,19.44-3.83,5.6-9.12,9.93-15.87,13-6.75,3.07-14.41,4.6-23,4.6Z"/>
  </g>
  <g>
    <line class="cls-1" x1="24" y1="230.21" x2="24.5" y2="230.21"/>
    <line class="cls-2" x1="120" y1="230.21" x2="1084.53" y2="230.21"/>
    <line class="cls-1" x1="1084.53" y1="230.21" x2="1085.03" y2="230.21"/>
  </g>
</svg>